<svg width="65" height="60" viewBox="0 0 65 60" fill="none" xmlns="http://www.w3.org/2000/svg">
<g clip-path="url(#clip0_1307_4980)">
<path d="M56.8906 33.9258L59.4922 31.3242C60.5937 30.2227 60.5937 28.4414 59.4922 27.3516L36.7227 4.57031C35.6211 3.46875 33.8398 3.46875 32.75 4.57031L9.96875 27.3516C8.86719 28.4531 8.86719 30.2344 9.96875 31.3242L12.5703 33.9258C13.6836 35.0391 15.5 35.0156 16.5898 33.8789L30.043 19.7578V53.4375C30.043 54.9961 31.2969 56.25 32.8555 56.25H36.6055C38.1641 56.25 39.418 54.9961 39.418 53.4375V19.7578L52.8711 33.8789C53.9609 35.0273 55.7773 35.0508 56.8906 33.9258Z" fill="#DFCF3D"/>
</g>
<defs>
<clipPath id="clip0_1307_4980">
<rect width="60" height="60" fill="white" transform="matrix(1 0 0 -1 4.73047 60)"/>
</clipPath>
</defs>
</svg>
